<svg width="40" height="40" viewBox="0 0 40 40" fill="none" xmlns="http://www.w3.org/2000/svg">
<path d="M38.6292 22.127C39.0555 18.3934 38.35 14.6178 36.6044 11.29C34.8587 7.96214 32.1533 5.23564 28.8391 3.46412C25.525 1.69261 21.755 0.957823 18.0181 1.35507C14.2813 1.75232 10.75 3.26327 7.88238 5.69195C5.01473 8.12062 2.94303 11.3549 1.93599 14.9754C0.928953 18.5959 1.03304 22.4354 2.23476 25.996C3.43648 29.5566 5.68038 32.6739 8.6754 34.9436C11.6704 37.2134 15.2784 38.5308 19.0313 38.725" stroke="#0870D8" stroke-width="2.17" stroke-linecap="round" stroke-linejoin="round"/>
<path d="M20 9.58325V19.9999L26.25 26.2499M26.25 34.5833L30.4167 38.7499L38.75 30.4166" stroke="#0870D8" stroke-width="2.17" stroke-linecap="round" stroke-linejoin="round"/>
</svg>
