<svg width="16" height="15" viewBox="0 0 16 15" fill="none" xmlns="http://www.w3.org/2000/svg">
<path d="M8 0C3.85789 0 0.5 3.35789 0.5 7.5C0.5 11.6423 3.85789 15 8 15C12.1423 15 15.5 11.6423 15.5 7.5C15.5 3.35789 12.1423 0 8 0ZM8 14.0773C4.38148 14.0773 1.4375 11.1185 1.4375 7.49997C1.4375 3.88145 4.38148 0.937471 8 0.937471C11.6185 0.937471 14.5625 3.88147 14.5625 7.49997C14.5625 11.1185 11.6185 14.0773 8 14.0773ZM10.9932 4.7557L6.5928 9.18375L4.61116 7.20211C4.42811 7.01906 4.13139 7.01906 3.94811 7.20211C3.76506 7.38516 3.76506 7.68187 3.94811 7.86492L6.26819 10.1852C6.45124 10.368 6.74795 10.368 6.93124 10.1852C6.95233 10.1641 6.97039 10.1412 6.9868 10.1173L11.6565 5.41874C11.8393 5.23569 11.8393 4.93897 11.6565 4.7557C11.4732 4.57266 11.1765 4.57266 10.9932 4.7557Z" fill="#0870D8"/>
</svg>
