<svg width="28" height="30" viewBox="0 0 28 30" fill="none" xmlns="http://www.w3.org/2000/svg">
<path fill-rule="evenodd" clip-rule="evenodd" d="M17.9767 15.5558C17.7468 14.9059 17.3211 14.3431 16.7582 13.9451C16.1952 13.5471 15.5228 13.3333 14.8333 13.3333V12.5H13.1667V13.3333C12.2826 13.3333 11.4348 13.6845 10.8096 14.3096C10.1845 14.9348 9.83333 15.7826 9.83333 16.6667C9.83333 17.5507 10.1845 18.3986 10.8096 19.0237C11.4348 19.6488 12.2826 20 13.1667 20V23.3333C12.4417 23.3333 11.8242 22.8708 11.5942 22.2225C11.56 22.1164 11.505 22.0183 11.4323 21.9339C11.3596 21.8494 11.2706 21.7804 11.1708 21.731C11.071 21.6815 10.9622 21.6526 10.851 21.6459C10.7398 21.6392 10.6283 21.6549 10.5233 21.692C10.4182 21.7291 10.3216 21.7869 10.2393 21.862C10.157 21.9371 10.0906 22.0279 10.044 22.1291C9.99734 22.2303 9.9715 22.3399 9.96796 22.4512C9.96441 22.5626 9.98324 22.6735 10.0233 22.7775C10.2532 23.4275 10.6789 23.9902 11.2418 24.3882C11.8048 24.7863 12.4772 25 13.1667 25V25.8333H14.8333V25C15.7174 25 16.5652 24.6488 17.1904 24.0237C17.8155 23.3986 18.1667 22.5507 18.1667 21.6667C18.1667 20.7826 17.8155 19.9348 17.1904 19.3096C16.5652 18.6845 15.7174 18.3333 14.8333 18.3333V15C15.178 14.9999 15.5142 15.1067 15.7957 15.3056C16.0772 15.5046 16.29 15.7859 16.405 16.1108C16.4786 16.3192 16.632 16.4899 16.8314 16.5852C16.9301 16.6324 17.0372 16.6597 17.1465 16.6655C17.2558 16.6714 17.3651 16.6556 17.4683 16.6192C17.5715 16.5827 17.6665 16.5263 17.7479 16.4532C17.8293 16.38 17.8955 16.2915 17.9427 16.1928C17.9899 16.094 18.0172 15.987 18.023 15.8777C18.0289 15.7684 18.0131 15.659 17.9767 15.5558ZM13.1667 15C12.7246 15 12.3007 15.1756 11.9882 15.4882C11.6756 15.8007 11.5 16.2246 11.5 16.6667C11.5 17.1087 11.6756 17.5326 11.9882 17.8452C12.3007 18.1577 12.7246 18.3333 13.1667 18.3333V15ZM14.8333 23.3333C15.2754 23.3333 15.6993 23.1577 16.0118 22.8452C16.3244 22.5326 16.5 22.1087 16.5 21.6667C16.5 21.2246 16.3244 20.8007 16.0118 20.4882C15.6993 20.1756 15.2754 20 14.8333 20V23.3333Z" fill="#0870D8"/>
<path fill-rule="evenodd" clip-rule="evenodd" d="M4.85405 2.18417C6.89905 1.18333 10.254 0 13.9257 0C17.5207 0 20.7874 1.13417 22.8215 2.12167L22.9365 2.1775C23.5499 2.48083 24.0449 2.7675 24.3932 3L21.3149 7.5C28.4115 14.755 33.8932 29.9975 13.9257 29.9975C-6.04179 29.9975 -0.70762 15.0317 6.45071 7.5L3.39238 3C3.62821 2.84583 3.92738 2.66667 4.28405 2.47667C4.46071 2.38167 4.65071 2.28333 4.85405 2.18417ZM19.3365 7.44083L21.8007 3.83833C19.509 4.00333 16.7824 4.54167 14.1574 5.30167C12.2824 5.84333 10.199 5.76083 8.26988 5.405C7.78374 5.31487 7.30094 5.20758 6.82238 5.08333L8.42238 7.43917C11.8515 8.66 15.9065 8.66 19.3365 7.44083ZM7.45988 8.85833C11.4724 10.4083 16.2949 10.4083 20.3074 8.85667C21.9823 10.6222 23.3834 12.6287 24.464 14.8092C25.5907 17.1075 26.204 19.405 26.104 21.385C26.0074 23.2958 25.2557 24.9283 23.539 26.1417C21.7499 27.4058 18.7407 28.3308 13.9249 28.3308C9.10405 28.3308 6.08071 27.4217 4.27488 26.1717C2.54571 24.9742 1.78655 23.3633 1.67905 21.4783C1.56655 19.52 2.16655 17.2342 3.28905 14.92C4.35988 12.7133 5.85405 10.5892 7.45988 8.85833ZM6.50155 3.26333C7.16821 3.46167 7.86488 3.63417 8.57155 3.765C10.3632 4.095 12.1599 4.14333 13.6932 3.69917C15.4801 3.17862 17.2974 2.76923 19.1349 2.47333C17.6015 2.01167 15.8082 1.66667 13.9249 1.66667C11.054 1.66667 8.37655 2.4675 6.50155 3.26333Z" fill="#0870D8"/>
</svg>
