<svg width="31" height="30" viewBox="0 0 31 30" fill="none" xmlns="http://www.w3.org/2000/svg">
<g clip-path="url(#clip0_18_445)">
<path d="M2.375 15C2.375 18.481 3.75781 21.8194 6.21922 24.2808C8.68064 26.7422 12.019 28.125 15.5 28.125C18.981 28.125 22.3194 26.7422 24.7808 24.2808C27.2422 21.8194 28.625 18.481 28.625 15C28.625 11.519 27.2422 8.18064 24.7808 5.71922C22.3194 3.25781 18.981 1.875 15.5 1.875C12.019 1.875 8.68064 3.25781 6.21922 5.71922C3.75781 8.18064 2.375 11.519 2.375 15ZM30.5 15C30.5 18.9782 28.9196 22.7936 26.1066 25.6066C23.2936 28.4196 19.4782 30 15.5 30C11.5218 30 7.70644 28.4196 4.8934 25.6066C2.08035 22.7936 0.5 18.9782 0.5 15C0.5 11.0218 2.08035 7.20644 4.8934 4.3934C7.70644 1.58035 11.5218 0 15.5 0C19.4782 0 23.2936 1.58035 26.1066 4.3934C28.9196 7.20644 30.5 11.0218 30.5 15ZM12.9613 11.7V11.8313H10.5781V11.7112C10.5781 9.43687 12.2262 7.2075 15.5225 7.2075C18.4888 7.2075 20.4219 8.98687 20.4219 11.3606C20.4219 13.2394 19.2969 14.4863 18.0088 15.9169L17.8287 16.1175L14.1275 20.28V20.4244H20.6862V22.5H10.6663V20.94L16.235 14.7656C17.0487 13.875 17.9281 12.8756 17.9281 11.5688C17.9281 10.1737 16.8837 9.25125 15.4662 9.25125C13.8856 9.25125 12.9613 10.4044 12.9613 11.7Z" fill="#0870D8"/>
</g>
<defs>
<clipPath id="clip0_18_445">
<rect width="30" height="30" fill="white" transform="translate(0.5)"/>
</clipPath>
</defs>
</svg>
