<svg width="31" height="30" viewBox="0 0 31 30" fill="none" xmlns="http://www.w3.org/2000/svg">
<g clip-path="url(#clip0_18_439)">
<path d="M2.375 15C2.375 18.481 3.75781 21.8194 6.21922 24.2808C8.68064 26.7422 12.019 28.125 15.5 28.125C18.981 28.125 22.3194 26.7422 24.7808 24.2808C27.2422 21.8194 28.625 18.481 28.625 15C28.625 11.519 27.2422 8.18064 24.7808 5.71922C22.3194 3.25781 18.981 1.875 15.5 1.875C12.019 1.875 8.68064 3.25781 6.21922 5.71922C3.75781 8.18064 2.375 11.519 2.375 15ZM30.5 15C30.5 18.9782 28.9196 22.7936 26.1066 25.6066C23.2936 28.4196 19.4782 30 15.5 30C11.5218 30 7.70644 28.4196 4.8934 25.6066C2.08035 22.7936 0.5 18.9782 0.5 15C0.5 11.0218 2.08035 7.20644 4.8934 4.3934C7.70644 1.58035 11.5218 0 15.5 0C19.4782 0 23.2936 1.58035 26.1066 4.3934C28.9196 7.20644 30.5 11.0218 30.5 15ZM17.9056 7.50375V22.5H15.4456V10.0087H15.3238L11.885 12.48V10.0969L15.4456 7.50375H17.9056Z" fill="#0870D8"/>
</g>
<defs>
<clipPath id="clip0_18_439">
<rect width="30" height="30" fill="white" transform="translate(0.5)"/>
</clipPath>
</defs>
</svg>
