<svg width="30" height="28" viewBox="0 0 30 28" fill="none" xmlns="http://www.w3.org/2000/svg">
<path d="M2.69167 27.3334C1.925 27.3334 1.285 27.0767 0.771667 26.5634C0.257222 26.0489 0 25.4084 0 24.6417V8.35835C0 7.59169 0.257222 6.95169 0.771667 6.43835C1.285 5.92391 1.925 5.66669 2.69167 5.66669H10V3.35835C10 2.59169 10.2572 1.95169 10.7717 1.43835C11.285 0.923909 11.925 0.666687 12.6917 0.666687H17.3083C18.075 0.666687 18.7156 0.923909 19.23 1.43835C19.7433 1.95169 20 2.59169 20 3.35835V5.66669H27.3083C28.075 5.66669 28.715 5.92391 29.2283 6.43835C29.7428 6.95169 30 7.59169 30 8.35835V24.6417C30 25.4084 29.7433 26.0484 29.23 26.5617C28.7156 27.0761 28.075 27.3334 27.3083 27.3334H2.69167ZM11.6667 5.66669H18.3333V3.35835C18.3333 3.1028 18.2267 2.8678 18.0133 2.65335C17.7989 2.44002 17.5639 2.33335 17.3083 2.33335H12.6917C12.4361 2.33335 12.2011 2.44002 11.9867 2.65335C11.7733 2.8678 11.6667 3.1028 11.6667 3.35835V5.66669ZM28.3333 18.1667H18.3333V20.6667H11.6667V18.1667H1.66667V24.6417C1.66667 24.8972 1.77333 25.1322 1.98667 25.3467C2.20111 25.56 2.43611 25.6667 2.69167 25.6667H27.3083C27.5639 25.6667 27.7989 25.56 28.0133 25.3467C28.2267 25.1322 28.3333 24.8972 28.3333 24.6417V18.1667ZM13.3333 19H16.6667V15.6667H13.3333V19ZM1.66667 16.5H11.6667V14H18.3333V16.5H28.3333V8.35835C28.3333 8.1028 28.2267 7.8678 28.0133 7.65335C27.7989 7.44002 27.5639 7.33335 27.3083 7.33335H2.69167C2.43611 7.33335 2.20111 7.44002 1.98667 7.65335C1.77333 7.8678 1.66667 8.1028 1.66667 8.35835V16.5Z" fill="#0870D8"/>
</svg>
