<svg width="44" height="44" viewBox="0 0 44 44" fill="none" xmlns="http://www.w3.org/2000/svg">
<path d="M41.6042 16.25H42.3333V22C42.3333 24.0113 41.2002 26.8016 38.2709 27.5575L37.9972 27.6281L37.9166 27.899C37.432 29.5273 36.2457 31.1556 34.1009 31.7251L33.83 31.797L33.75 32.0655C33.4489 33.0756 32.8853 34.0787 32.0023 34.8268C31.1262 35.5691 29.9091 36.0833 28.25 36.0833H20.7708H20.5632L20.4166 36.2304L14.7923 41.8756C14.0557 42.6122 12.8233 43.2708 11.5 43.2708C10.489 43.2708 9.40718 42.9084 8.37439 41.8756L2.12826 35.6295C1.48189 34.953 0.892891 33.9268 0.759633 32.7882C0.628908 31.6713 0.930914 30.4118 2.12388 29.2082L3.60104 27.7519L3.75 27.605V27.3958V19.2696L12.8536 10.166L12.9128 10.1068L12.9495 10.0314C14.0451 7.78166 16.1768 5.83333 19.9167 5.83333H25.3125H25.5205L25.6671 5.68584L29.2043 2.12779C29.8808 1.4816 30.9068 0.892852 32.0451 0.759625C33.1624 0.628856 34.4224 0.931111 35.6263 2.12509C35.6266 2.12532 35.6268 2.12555 35.627 2.12579L41.8717 8.37052C42.5175 9.04634 43.107 10.0777 43.2404 11.2195C43.3711 12.3392 43.0689 13.5974 41.8786 14.7893L41.2567 15.3905L40.3675 16.25H41.6042ZM30.8333 30.3333V28.75H32.4167C33.3853 28.75 34.0661 28.4136 34.4877 27.8644C34.8909 27.3392 35 26.6929 35 26.1667V24.5833H36.5833C37.552 24.5833 38.2327 24.2469 38.6544 23.6977C39.0576 23.1726 39.1667 22.5262 39.1667 22V19.9167V19.4167H38.6667H24.0833H23.5833V19.9167C23.5833 21.0805 23.1953 22.5292 22.2854 23.6762C21.3897 24.8053 19.9708 25.6667 17.8333 25.6667C15.6959 25.6667 14.277 24.8053 13.3813 23.6762C12.4713 22.5292 12.0833 21.0805 12.0833 19.9167V16.6042V15.3971L11.2298 16.2506L7.06312 20.4173L6.91667 20.5637V20.7708V28.8982L4.37562 31.4589C4.37538 31.4592 4.37515 31.4594 4.37491 31.4596C4.37198 31.4626 4.36894 31.4656 4.36578 31.4688C4.25551 31.5787 4.0107 31.8229 3.93728 32.1808C3.85177 32.5977 4.01682 33.0106 4.38487 33.4041L4.39084 33.4105L4.39704 33.4166L10.6256 39.6244L10.6262 39.625L10.6354 39.6342C10.7454 39.7445 10.9896 39.9893 11.3474 40.0627C11.7643 40.1482 12.1773 39.9832 12.5707 39.6151L12.5768 39.6094L12.5827 39.6035L19.2696 32.9167H28.25C29.2187 32.9167 29.8994 32.5803 30.3211 32.031C30.7243 31.5059 30.8333 30.8595 30.8333 30.3333ZM35.7292 16.25H35.9371L36.0838 16.1025L39.6244 12.541L39.6254 12.54L39.6342 12.5312C39.7445 12.4213 39.9893 12.1771 40.0627 11.8192C40.1482 11.4023 39.9832 10.9893 39.6151 10.5959L39.6092 10.5895L39.603 10.5833L33.3744 4.37561L33.3738 4.37502L33.3646 4.36577C33.2546 4.25551 33.0104 4.01069 32.6526 3.93728C32.2357 3.85176 31.8227 4.01681 31.4293 4.38486L31.4232 4.39055L31.4173 4.39644L26.8137 8.99999H19.9167C17.8396 8.99999 16.635 9.88983 15.9774 10.9626C15.3432 11.9971 15.25 13.1455 15.25 13.6667V19.9167C15.25 20.4429 15.3591 21.0892 15.7623 21.6144C16.1839 22.1636 16.8647 22.5 17.8333 22.5C18.802 22.5 19.4827 22.1636 19.9044 21.6144C20.3076 21.0892 20.4167 20.4429 20.4167 19.9167V16.25H35.7292Z" fill="#0870D8" stroke="white"/>
</svg>
