<svg width="35" height="35" viewBox="0 0 35 35" fill="none" xmlns="http://www.w3.org/2000/svg">
<path d="M17.5 32.7125C9.11148 32.7125 2.2875 25.8885 2.2875 17.5C2.2875 9.11148 9.11148 2.2875 17.5 2.2875C25.8885 2.2875 32.7125 9.11148 32.7125 17.5C32.7125 25.8885 25.8885 32.7125 17.5 32.7125ZM17.5 4.275C10.2041 4.275 4.275 10.2041 4.275 17.5C4.275 24.7959 10.2041 30.725 17.5 30.725C24.7959 30.725 30.725 24.7959 30.725 17.5C30.725 10.2041 24.7959 4.275 17.5 4.275Z" fill="#0870D8" stroke="white" stroke-width="0.2"/>
<path d="M21.3577 22.7299L21.3592 22.7308C21.5152 22.8283 21.6928 22.8687 21.8749 22.8687C22.0919 22.8677 22.3026 22.7959 22.4751 22.6644C22.6477 22.5328 22.7727 22.3484 22.8312 22.1394C22.8896 21.9303 22.8783 21.7079 22.799 21.5058C22.7197 21.3039 22.5768 21.1334 22.392 21.0199C22.3918 21.0198 22.3917 21.0197 22.3915 21.0196L17.4487 18.0671L17.4 18.038V17.9813V9.84375C17.4 9.28648 16.9635 8.85 16.4062 8.85C15.849 8.85 15.4125 9.28648 15.4125 9.84375V18.5938V18.5949H15.4125C15.4105 18.7664 15.4535 18.9355 15.537 19.0852C15.6206 19.235 15.7419 19.3603 15.8889 19.4486L21.3577 22.7299ZM21.3577 22.7299L15.889 19.4487L21.3577 22.7299Z" fill="#0870D8" stroke="white" stroke-width="0.2"/>
</svg>
